<svg width="1280" height="770" viewBox="0 0 1280 770" fill="none" xmlns="http://www.w3.org/2000/svg">
  <defs><filter id="s" x="-20%" y="-20%" width="140%" height="150%"><feDropShadow dx="0" dy="18" stdDeviation="20" flood-color="#17362A" flood-opacity=".16"/></filter></defs>
  <rect width="1280" height="770" rx="20" fill="#F4F6F2"/><rect width="238" height="770" rx="20" fill="#183529"/><rect x="220" width="18" height="770" fill="#183529"/>
  <text x="36" y="62" fill="white" font-family="Arial, sans-serif" font-size="21" font-weight="700">✦ InterviewWizz</text><rect x="20" y="111" width="198" height="45" rx="8" fill="#315945"/><text x="38" y="139" fill="white" font-family="Arial, sans-serif" font-size="14">⌘   Prep workspace</text><text x="39" y="193" fill="#B9C9BE" font-family="Arial" font-size="14">◫   Question library</text><text x="39" y="240" fill="#B9C9BE" font-family="Arial" font-size="14">✓   Scorecards</text>
  <circle cx="46" cy="710" r="16" fill="#E7A37E"/><text x="35" y="714" fill="#42291E" font-family="Arial" font-size="10" font-weight="700">AM</text><text x="72" y="706" fill="white" font-family="Arial" font-size="12" font-weight="700">Alex Morgan</text><text x="72" y="724" fill="#A9BBAF" font-family="Arial" font-size="11">Acme Software</text>
  <text x="296" y="42" fill="#708078" font-family="monospace" font-size="11">PREP WORKSPACE  /  NEW INTERVIEW</text><line x1="238" y1="68" x2="1280" y2="68" stroke="#DFE5DF"/>
  <text x="296" y="127" fill="#52735E" font-family="monospace" font-size="11">YOUR INTERVIEW COPILOT</text><text x="296" y="179" fill="#17221D" font-family="Georgia" font-size="46" font-weight="bold">Walk in</text><text x="466" y="179" fill="#557861" font-family="Georgia" font-size="46" font-style="italic" font-weight="bold">prepared.</text><text x="296" y="211" fill="#66736B" font-family="Arial" font-size="15">Build a fair, focused interview plan from the role and candidate context.</text>
  <circle cx="1080" cy="145" r="12" fill="#345D48"/><text x="1076" y="149" fill="white" font-family="Arial" font-size="10">1</text><line x1="1096" y1="145" x2="1141" y2="145" stroke="#CBD4CD"/><circle cx="1154" cy="145" r="12" fill="white" stroke="#BCC7BE"/><text x="1150" y="149" fill="#9EAAA1" font-family="Arial" font-size="10">2</text><line x1="1170" y1="145" x2="1215" y2="145" stroke="#CBD4CD"/><circle cx="1228" cy="145" r="12" fill="white" stroke="#BCC7BE"/><text x="1224" y="149" fill="#9EAAA1" font-family="Arial" font-size="10">3</text>
  <g filter="url(#s)"><rect x="278" y="250" width="950" height="438" rx="13" fill="#FFFEFA" stroke="#DFE5DF"/></g><text x="310" y="288" fill="#547761" font-family="monospace" font-size="11">01 / CONTEXT</text><text x="310" y="322" fill="#17221D" font-family="Georgia" font-size="27" font-weight="bold">Tell me about the interview</text><text x="1137" y="288" fill="#89958D" font-family="Arial" font-size="12">* Required</text>
  <text x="310" y="369" fill="#17221D" font-family="Arial" font-size="13" font-weight="bold">Role title *</text><rect x="310" y="382" width="398" height="43" rx="6" fill="white" stroke="#CCD5CE"/><text x="323" y="409" fill="#17221D" font-family="Arial" font-size="14">Senior Product Manager</text><text x="728" y="369" fill="#17221D" font-family="Arial" font-size="13" font-weight="bold">Interview stage</text><rect x="728" y="382" width="222" height="43" rx="6" fill="white" stroke="#CCD5CE"/><text x="741" y="409" fill="#17221D" font-family="Arial" font-size="12">First-round hiring manager⌄</text><text x="969" y="369" fill="#17221D" font-family="Arial" font-size="13" font-weight="bold">Length</text><rect x="969" y="382" width="226" height="43" rx="6" fill="white" stroke="#CCD5CE"/><text x="982" y="409" fill="#17221D" font-family="Arial" font-size="13">45 minutes⌄</text>
  <text x="310" y="463" fill="#17221D" font-family="Arial" font-size="13" font-weight="bold">Job description *</text><text x="767" y="463" fill="#17221D" font-family="Arial" font-size="13" font-weight="bold">Candidate CV or profile</text><rect x="310" y="476" width="432" height="111" rx="6" fill="white" stroke="#CCD5CE"/><text x="323" y="501" fill="#68756D" font-family="Arial" font-size="12">Lead our activation experience. Partner with</text><text x="323" y="521" fill="#68756D" font-family="Arial" font-size="12">design and engineering, own product strategy,</text><text x="323" y="541" fill="#68756D" font-family="Arial" font-size="12">and use data to make decisions.</text><rect x="767" y="476" width="428" height="111" rx="6" fill="white" stroke="#CCD5CE"/><text x="780" y="501" fill="#68756D" font-family="Arial" font-size="12">Morgan Lee — PM with 7 years of experience.</text><text x="780" y="521" fill="#68756D" font-family="Arial" font-size="12">Led onboarding and activation, increasing</text><text x="780" y="541" fill="#68756D" font-family="Arial" font-size="12">trial-to-paid conversion by 18%.</text>
  <line x1="310" y1="619" x2="1195" y2="619" stroke="#DFE5DF"/><circle cx="316" cy="649" r="4" fill="#4D8A65"/><text x="327" y="653" fill="#748078" font-family="Arial" font-size="12">Your interview materials stay private to your workspace.</text><rect x="1001" y="634" width="194" height="39" rx="6" fill="#315E47"/><text x="1017" y="659" fill="white" font-family="Arial" font-size="13" font-weight="bold">Create interview plan  →</text>
</svg>
